<svg xmlns="http://www.w3.org/2000/svg" viewBox="0 0 32 32">
  <style>.tile{fill:#ff6900}@media (prefers-color-scheme:dark){.tile{fill:#615fff}}</style>
  <rect class="tile" width="32" height="32" rx="7"/>
  <path transform="translate(4 4)" d="M19.5 12c0-1.232-.046-2.453-.138-3.662a4.006 4.006 0 0 0-3.7-3.7 48.678 48.678 0 0 0-7.324 0 4.006 4.006 0 0 0-3.7 3.7c-.017.22-.032.441-.046.662M19.5 12l3-3m-3 3-3-3m-12 3c0 1.232.046 2.453.138 3.662a4.006 4.006 0 0 0 3.7 3.7 48.656 48.656 0 0 0 7.324 0 4.006 4.006 0 0 0 3.7-3.7c.017-.22.032-.441.046-.662M4.5 12l3 3m-3-3-3 3" fill="none" stroke="#fff" stroke-width="2" stroke-linecap="round" stroke-linejoin="round"/>
</svg>
